# Rhino

mtllib canvas-white.mtl
usemtl diffuse_0
v 25 25.386806488037109 0.28680646419525146
v 25 25.386806488037109 3.5131938457489014
v 8.3333330154418945 25.386806488037109 0.28680646419525146
v 8.3333330154418945 25.386806488037109 3.5131938457489014
v -8.3333330154418945 25.386806488037109 0.28680646419525146
v -8.3333330154418945 25.386806488037109 3.5131938457489014
v -25 25.386806488037109 0.28680646419525146
v -24.999998092651367 25.386806488037109 3.5131938457489014
v -24.999998092651367 25.386806488037109 2.6534478664398193
v -16.666666030883789 25.386806488037109 3.5131938457489014
v -8.3333330154418945 25.386806488037109 1.9000000953674316
v -16.666666030883789 25.386806488037109 0.28680646419525146
v -16.666666030883789 25.386806488037109 1.9000000953674316
v -20.833333969116211 25.386806488037109 3.5131938457489014
v -16.666666030883789 25.386806488037109 2.7065970897674561
v -20.833333969116211 25.386806488037109 1.9000000953674316
v -20.833333969116211 25.386806488037109 2.7065970897674561
v -22.916666030883789 25.386806488037109 2.7065970897674561
v -20.833333969116211 25.386806488037109 2.3032984733581543
v -22.916666030883789 25.386806488037109 1.9000000953674316
v -22.916666030883789 25.386806488037109 2.3032984733581543
v -16.666666030883789 25.386806488037109 1.0934033393859863
v -20.833333969116211 25.386806488037109 0.28680646419525146
v -20.833333969116211 25.386806488037109 1.0934033393859863
v -22.916666030883789 25.386806488037109 3.5131938457489014
v -20.833333969116211 25.386806488037109 3.1098954677581787
v -22.916666030883789 25.386806488037109 3.1098954677581787
v 25 25.386806488037109 2.6534478664398193
v 8.3333330154418945 25.386806488037109 1.9000000953674316
v 16.666666030883789 25.386806488037109 3.5131938457489014
v 16.666666030883789 25.386806488037109 0.28680646419525146
v 16.666666030883789 25.386806488037109 1.9000000953674316
v 16.666666030883789 25.386806488037109 2.7065970897674561
v 20.833333969116211 25.386806488037109 3.5131938457489014
v 20.833333969116211 25.386806488037109 1.9000000953674316
v 20.833333969116211 25.386806488037109 2.7065970897674561
v 20.833333969116211 25.386806488037109 3.1098954677581787
v 22.916666030883789 25.386806488037109 3.5131938457489014
v 22.916666030883789 25.386806488037109 2.7065970897674561
v 22.916666030883789 25.386806488037109 3.1098954677581787
v 20.833333969116211 25.386806488037109 2.3032984733581543
v 22.916666030883789 25.386806488037109 1.9000000953674316
v 22.916666030883789 25.386806488037109 2.3032984733581543
v 16.666666030883789 25.386806488037109 1.0934033393859863
v 20.833333969116211 25.386806488037109 0.28680646419525146
v 20.833333969116211 25.386806488037109 1.0934033393859863
v -25 25.386806488037109 0.28680646419525146
v -24.999998092651367 25.386806488037109 3.5131938457489014
v -25 8.7201395034790039 0.28680646419525146
v -25 8.7201395034790039 3.5131938457489014
v -25 -7.9465270042419434 0.28680646419525146
v -25 -7.9465270042419434 3.5131938457489014
v -25 -24.613193511962891 0.28680646419525146
v -24.999998092651367 -24.613193511962891 3.5131938457489014
v -24.999998092651367 25.386806488037109 2.6534478664398193
v -25 8.7201395034790039 1.9000000953674316
v -25 17.053472518920898 3.5131938457489014
v -25 17.053472518920898 0.28680646419525146
v -25 17.053472518920898 1.9000000953674316
v -25 17.053472518920898 2.7065970897674561
v -25 21.22014045715332 3.5131938457489014
v -25 21.22014045715332 1.9000000953674316
v -25 21.22014045715332 2.7065970897674561
v -25 21.22014045715332 3.1098954677581787
v -25 23.303472518920898 3.5131938457489014
v -25 23.303472518920898 2.7065970897674561
v -25 23.303472518920898 3.1098954677581787
v -25 21.22014045715332 2.3032984733581543
v -25 23.303472518920898 1.9000000953674316
v -25 23.303472518920898 2.3032984733581543
v -25 17.053472518920898 1.0934033393859863
v -25 21.22014045715332 0.28680646419525146
v -25 21.22014045715332 1.0934033393859863
v -24.999998092651367 -24.613193511962891 2.6534478664398193
v -25 -16.27985954284668 3.5131938457489014
v -25 -7.9465270042419434 1.9000000953674316
v -25 -16.27985954284668 0.28680646419525146
v -25 -16.27985954284668 1.9000000953674316
v -25 -20.446527481079102 3.5131938457489014
v -25 -16.27985954284668 2.7065970897674561
v -25 -20.446527481079102 1.9000000953674316
v -25 -20.446527481079102 2.7065970897674561
v -25 -22.52985954284668 2.7065970897674561
v -25 -20.446527481079102 2.3032984733581543
v -25 -22.52985954284668 1.9000000953674316
v -25 -22.52985954284668 2.3032984733581543
v -25 -16.27985954284668 1.0934033393859863
v -25 -20.446527481079102 0.28680646419525146
v -25 -20.446527481079102 1.0934033393859863
v -25 -22.52985954284668 3.5131938457489014
v -25 -20.446527481079102 3.1098954677581787
v -25 -22.52985954284668 3.1098954677581787
v 25 -24.613193511962891 0.28680646419525146
v 25 -24.613193511962891 3.5131938457489014
v 25 -7.9465270042419434 0.28680646419525146
v 25 -7.9465270042419434 3.5131938457489014
v 25 8.7201395034790039 0.28680646419525146
v 25 8.7201395034790039 3.5131938457489014
v 25 25.386806488037109 0.28680646419525146
v 25 25.386806488037109 3.5131938457489014
v 25 25.386806488037109 2.6534478664398193
v 25 17.053472518920898 3.5131938457489014
v 25 8.7201395034790039 1.9000000953674316
v 25 17.053472518920898 0.28680646419525146
v 25 17.053472518920898 1.9000000953674316
v 25 21.22014045715332 3.5131938457489014
v 25 17.053472518920898 2.7065970897674561
v 25 21.22014045715332 1.9000000953674316
v 25 21.22014045715332 2.7065970897674561
v 25 23.303472518920898 2.7065970897674561
v 25 21.22014045715332 2.3032984733581543
v 25 23.303472518920898 1.9000000953674316
v 25 23.303472518920898 2.3032984733581543
v 25 17.053472518920898 1.0934033393859863
v 25 21.22014045715332 0.28680646419525146
v 25 21.22014045715332 1.0934033393859863
v 25 23.303472518920898 3.5131938457489014
v 25 21.22014045715332 3.1098954677581787
v 25 23.303472518920898 3.1098954677581787
v 25 -24.613193511962891 2.6534478664398193
v 25 -7.9465270042419434 1.9000000953674316
v 25 -16.27985954284668 3.5131938457489014
v 25 -16.27985954284668 0.28680646419525146
v 25 -16.27985954284668 1.9000000953674316
v 25 -16.27985954284668 2.7065970897674561
v 25 -20.446527481079102 3.5131938457489014
v 25 -20.446527481079102 1.9000000953674316
v 25 -20.446527481079102 2.7065970897674561
v 25 -20.446527481079102 3.1098954677581787
v 25 -22.52985954284668 3.5131938457489014
v 25 -22.52985954284668 2.7065970897674561
v 25 -22.52985954284668 3.1098954677581787
v 25 -20.446527481079102 2.3032984733581543
v 25 -22.52985954284668 1.9000000953674316
v 25 -22.52985954284668 2.3032984733581543
v 25 -16.27985954284668 1.0934033393859863
v 25 -20.446527481079102 0.28680646419525146
v 25 -20.446527481079102 1.0934033393859863
v -25 -24.613193511962891 0.28680646419525146
v -24.999998092651367 -24.613193511962891 3.5131938457489014
v -8.3333330154418945 -24.613193511962891 0.28680646419525146
v -8.3333330154418945 -24.613193511962891 3.5131938457489014
v 8.3333330154418945 -24.613193511962891 0.28680646419525146
v 8.3333330154418945 -24.613193511962891 3.5131938457489014
v 25 -24.613193511962891 0.28680646419525146
v 25 -24.613193511962891 3.5131938457489014
v -24.999998092651367 -24.613193511962891 2.6534478664398193
v -8.3333330154418945 -24.613193511962891 1.9000000953674316
v -16.666666030883789 -24.613193511962891 3.5131938457489014
v -16.666666030883789 -24.613193511962891 0.28680646419525146
v -16.666666030883789 -24.613193511962891 1.9000000953674316
v -16.666666030883789 -24.613193511962891 2.7065970897674561
v -20.833333969116211 -24.613193511962891 3.5131938457489014
v -20.833333969116211 -24.613193511962891 1.9000000953674316
v -20.833333969116211 -24.613193511962891 2.7065970897674561
v -20.833333969116211 -24.613193511962891 3.1098954677581787
v -22.916666030883789 -24.613193511962891 3.5131938457489014
v -22.916666030883789 -24.613193511962891 2.7065970897674561
v -22.916666030883789 -24.613193511962891 3.1098954677581787
v -20.833333969116211 -24.613193511962891 2.3032984733581543
v -22.916666030883789 -24.613193511962891 1.9000000953674316
v -22.916666030883789 -24.613193511962891 2.3032984733581543
v -16.666666030883789 -24.613193511962891 1.0934033393859863
v -20.833333969116211 -24.613193511962891 0.28680646419525146
v -20.833333969116211 -24.613193511962891 1.0934033393859863
v 25 -24.613193511962891 2.6534478664398193
v 16.666666030883789 -24.613193511962891 3.5131938457489014
v 8.3333330154418945 -24.613193511962891 1.9000000953674316
v 16.666666030883789 -24.613193511962891 0.28680646419525146
v 16.666666030883789 -24.613193511962891 1.9000000953674316
v 20.833333969116211 -24.613193511962891 3.5131938457489014
v 16.666666030883789 -24.613193511962891 2.7065970897674561
v 20.833333969116211 -24.613193511962891 1.9000000953674316
v 20.833333969116211 -24.613193511962891 2.7065970897674561
v 22.916666030883789 -24.613193511962891 2.7065970897674561
v 20.833333969116211 -24.613193511962891 2.3032984733581543
v 22.916666030883789 -24.613193511962891 1.9000000953674316
v 22.916666030883789 -24.613193511962891 2.3032984733581543
v 16.666666030883789 -24.613193511962891 1.0934033393859863
v 20.833333969116211 -24.613193511962891 0.28680646419525146
v 20.833333969116211 -24.613193511962891 1.0934033393859863
v 22.916666030883789 -24.613193511962891 3.5131938457489014
v 20.833333969116211 -24.613193511962891 3.1098954677581787
v 22.916666030883789 -24.613193511962891 3.1098954677581787
vt 0.06061631441116333 0.31312790513038635
vt 0.06061631441116333 0.37374421954154968
vt 0.37325593829154968 0.31312790513038635
vt 0.37325593829154968 0.37374421954154968
vt 0.68589556217193604 0.31312790513038635
vt 0.68589556217193604 0.37374421954154968
vt 0.99853515625 0.31312790513038635
vt 0.99853515625 0.37374421954154968
vt 0.99853515625 0.35759156942367554
vt 0.84221535921096802 0.37374421954154968
vt 0.68589556217193604 0.34343606233596802
vt 0.84221535921096802 0.31312790513038635
vt 0.84221535921096802 0.34343606233596802
vt 0.9203752875328064 0.37374421954154968
vt 0.84221535921096802 0.35859012603759766
vt 0.9203752875328064 0.34343606233596802
vt 0.9203752875328064 0.35859012603759766
vt 0.95945519208908081 0.35859012603759766
vt 0.9203752875328064 0.35101309418678284
vt 0.95945519208908081 0.34343606233596802
vt 0.95945519208908081 0.35101309418678284
vt 0.84221535921096802 0.32828196883201599
vt 0.9203752875328064 0.31312790513038635
vt 0.9203752875328064 0.32828196883201599
vt 0.95945519208908081 0.37374421954154968
vt 0.9203752875328064 0.36616715788841248
vt 0.95945519208908081 0.36616715788841248
vt 0.06061631441116333 0.35759156942367554
vt 0.37325593829154968 0.34343606233596802
vt 0.21693612635135651 0.37374421954154968
vt 0.21693612635135651 0.31312790513038635
vt 0.21693612635135651 0.34343606233596802
vt 0.21693612635135651 0.35859012603759766
vt 0.13877621293067932 0.37374421954154968
vt 0.13877621293067932 0.34343606233596802
vt 0.13877621293067932 0.35859012603759766
vt 0.13877621293067932 0.36616715788841248
vt 0.099696263670921326 0.37374421954154968
vt 0.099696263670921326 0.35859012603759766
vt 0.099696263670921326 0.36616715788841248
vt 0.13877621293067932 0.35101309418678284
vt 0.099696263670921326 0.34343606233596802
vt 0.099696263670921326 0.35101309418678284
vt 0.21693612635135651 0.32828196883201599
vt 0.13877621293067932 0.31312790513038635
vt 0.13877621293067932 0.32828196883201599
vt 0.06061631441116333 0.62625581026077271
vt 0.06061631441116333 0.68687212467193604
vt 0.37325593829154968 0.62625581026077271
vt 0.37325593829154968 0.68687212467193604
vt 0.68589556217193604 0.62625581026077271
vt 0.68589556217193604 0.68687212467193604
vt 0.99853515625 0.62625581026077271
vt 0.99853515625 0.68687212467193604
vt 0.06061631441116333 0.67071950435638428
vt 0.37325593829154968 0.65656393766403198
vt 0.21693612635135651 0.68687212467193604
vt 0.21693612635135651 0.62625581026077271
vt 0.21693612635135651 0.65656393766403198
vt 0.21693612635135651 0.67171800136566162
vt 0.13877621293067932 0.68687212467193604
vt 0.13877621293067932 0.65656393766403198
vt 0.13877621293067932 0.67171800136566162
vt 0.13877621293067932 0.67929506301879883
vt 0.099696263670921326 0.68687212467193604
vt 0.099696263670921326 0.67171800136566162
vt 0.099696263670921326 0.67929506301879883
vt 0.13877621293067932 0.66414099931716919
vt 0.099696263670921326 0.65656393766403198
vt 0.099696263670921326 0.66414099931716919
vt 0.21693612635135651 0.64140987396240234
vt 0.13877621293067932 0.62625581026077271
vt 0.13877621293067932 0.64140987396240234
vt 0.99853515625 0.67071950435638428
vt 0.84221535921096802 0.68687212467193604
vt 0.68589556217193604 0.65656393766403198
vt 0.84221535921096802 0.62625581026077271
vt 0.84221535921096802 0.65656393766403198
vt 0.9203752875328064 0.68687212467193604
vt 0.84221535921096802 0.67171800136566162
vt 0.9203752875328064 0.65656393766403198
vt 0.9203752875328064 0.67171800136566162
vt 0.95945519208908081 0.67171800136566162
vt 0.9203752875328064 0.66414099931716919
vt 0.95945519208908081 0.65656393766403198
vt 0.95945519208908081 0.66414099931716919
vt 0.84221535921096802 0.64140987396240234
vt 0.9203752875328064 0.62625581026077271
vt 0.9203752875328064 0.64140987396240234
vt 0.95945519208908081 0.68687212467193604
vt 0.9203752875328064 0.67929506301879883
vt 0.95945519208908081 0.67929506301879883
vt 0.06061631441116333 0
vt 0.06061631441116333 0.06061631441116333
vt 0.37325593829154968 0
vt 0.37325593829154968 0.06061631441116333
vt 0.68589556217193604 0
vt 0.68589556217193604 0.06061631441116333
vt 0.99853515625 0
vt 0.99853515625 0.06061631441116333
vt 0.99853515625 0.044463686645030975
vt 0.84221535921096802 0.06061631441116333
vt 0.68589556217193604 0.030308157205581665
vt 0.84221535921096802 0
vt 0.84221535921096802 0.030308157205581665
vt 0.9203752875328064 0.06061631441116333
vt 0.84221535921096802 0.045462235808372498
vt 0.9203752875328064 0.030308157205581665
vt 0.9203752875328064 0.045462235808372498
vt 0.95945519208908081 0.045462235808372498
vt 0.9203752875328064 0.037885196506977081
vt 0.95945519208908081 0.030308157205581665
vt 0.95945519208908081 0.037885196506977081
vt 0.84221535921096802 0.015154078602790833
vt 0.9203752875328064 0
vt 0.9203752875328064 0.015154078602790833
vt 0.95945519208908081 0.06061631441116333
vt 0.9203752875328064 0.053039275109767914
vt 0.95945519208908081 0.053039275109767914
vt 0.06061631441116333 0.044463686645030975
vt 0.37325593829154968 0.030308157205581665
vt 0.21693612635135651 0.06061631441116333
vt 0.21693612635135651 0
vt 0.21693612635135651 0.030308157205581665
vt 0.21693612635135651 0.045462235808372498
vt 0.13877621293067932 0.06061631441116333
vt 0.13877621293067932 0.030308157205581665
vt 0.13877621293067932 0.045462235808372498
vt 0.13877621293067932 0.053039275109767914
vt 0.099696263670921326 0.06061631441116333
vt 0.099696263670921326 0.045462235808372498
vt 0.099696263670921326 0.053039275109767914
vt 0.13877621293067932 0.037885196506977081
vt 0.099696263670921326 0.030308157205581665
vt 0.099696263670921326 0.037885196506977081
vt 0.21693612635135651 0.015154078602790833
vt 0.13877621293067932 0
vt 0.13877621293067932 0.015154078602790833
vt 0.05915147066116333 0
vt 0 0
vt 0.05915147066116333 0.31263962388038635
vt 0 0.31263962388038635
vt 0.05915147066116333 0.62527924776077271
vt 0 0.62527924776077271
vt 0.05915147066116333 0.93791884183883667
vt 0 0.93791884183883667
vt 0.015762282535433769 0
vt 0.029575735330581665 0.31263962388038635
vt 0 0.15631981194019318
vt 0.05915147066116333 0.15631981194019318
vt 0.029575735330581665 0.15631981194019318
vt 0.014787867665290833 0.15631981194019318
vt 0 0.078159905970096588
vt 0.029575735330581665 0.078159905970096588
vt 0.014787867665290833 0.078159905970096588
vt 0.0073939338326454163 0.078159905970096588
vt 0 0.039079952985048294
vt 0.014787867665290833 0.039079952985048294
vt 0.0073939338326454163 0.039079952985048294
vt 0.022181801497936249 0.078159905970096588
vt 0.029575735330581665 0.039079952985048294
vt 0.022181801497936249 0.039079952985048294
vt 0.044363602995872498 0.15631981194019318
vt 0.05915147066116333 0.078159905970096588
vt 0.044363602995872498 0.078159905970096588
vt 0.015762282535433769 0.93791884183883667
vt 0 0.78159904479980469
vt 0.029575735330581665 0.62527924776077271
vt 0.05915147066116333 0.78159904479980469
vt 0.029575735330581665 0.78159904479980469
vt 0 0.85975897312164307
vt 0.014787867665290833 0.78159904479980469
vt 0.029575735330581665 0.85975897312164307
vt 0.014787867665290833 0.85975897312164307
vt 0.014787867665290833 0.89883887767791748
vt 0.022181801497936249 0.85975897312164307
vt 0.029575735330581665 0.89883887767791748
vt 0.022181801497936249 0.89883887767791748
vt 0.044363602995872498 0.78159904479980469
vt 0.05915147066116333 0.85975897312164307
vt 0.044363602995872498 0.85975897312164307
vt 0 0.89883887767791748
vt 0.0073939338326454163 0.85975897312164307
vt 0.0073939338326454163 0.89883887767791748
vn 0 1 0
vn 0 1 0
vn 0 1 0
vn 0 1 0
vn 0 1 0
vn 0 1 0
vn 0 1 0
vn 0 1 0
vn 0 1 0
vn 0 1 0
vn 0 1 0
vn 0 1 0
vn 0 1 0
vn 0 1 0
vn 0 1 0
vn 0 1 0
vn 0 1 0
vn 0 1 0
vn 0 1 0
vn 0 1 0
vn 0 1 0
vn 0 1 0
vn 0 1 0
vn 0 1 0
vn 0 1 0
vn 0 1 0
vn 0 1 0
vn 0 1 0
vn 0 1 0
vn 0 1 0
vn 0 1 0
vn 0 1 0
vn 0 1 0
vn 0 1 0
vn 0 1 0
vn 0 1 0
vn 0 1 0
vn 0 1 0
vn 0 1 0
vn 0 1 0
vn 0 1 0
vn 0 1 0
vn 0 1 0
vn 0 1 0
vn 0 1 0
vn 0 1 0
vn -1 0 0
vn -1 0 0
vn -1 0 0
vn -1 0 0
vn -1 0 0
vn -1 0 0
vn -1 0 0
vn -1 0 0
vn -1 0 0
vn -1 0 0
vn -1 0 0
vn -1 0 0
vn -1 0 0
vn -1 0 0
vn -1 0 0
vn -1 0 0
vn -1 0 0
vn -1 0 0
vn -1 0 0
vn -1 0 0
vn -1 0 0
vn -1 0 0
vn -1 0 0
vn -1 0 0
vn -1 0 0
vn -1 0 0
vn -1 0 0
vn -1 0 0
vn -1 0 0
vn -1 0 0
vn -1 0 0
vn -1 0 0
vn -1 0 0
vn -1 0 0
vn -1 0 0
vn -1 0 0
vn -1 0 0
vn -1 0 0
vn -1 0 0
vn -1 0 0
vn -1 0 0
vn -1 0 0
vn -1 0 0
vn -1 0 0
vn -1 0 0
vn -1 0 0
vn 1 0 0
vn 1 0 0
vn 1 0 0
vn 1 0 0
vn 1 0 0
vn 1 0 0
vn 1 0 0
vn 1 0 0
vn 1 0 0
vn 1 0 0
vn 1 0 0
vn 1 0 0
vn 1 0 0
vn 1 0 0
vn 1 0 0
vn 1 0 0
vn 1 0 0
vn 1 0 0
vn 1 0 0
vn 1 0 0
vn 1 0 0
vn 1 0 0
vn 1 0 0
vn 1 0 0
vn 1 0 0
vn 1 0 0
vn 1 0 0
vn 1 0 0
vn 1 0 0
vn 1 0 0
vn 1 0 0
vn 1 0 0
vn 1 0 0
vn 1 0 0
vn 1 0 0
vn 1 0 0
vn 1 0 0
vn 1 0 0
vn 1 0 0
vn 1 0 0
vn 1 0 0
vn 1 0 0
vn 1 0 0
vn 1 0 0
vn 1 0 0
vn 1 0 0
vn 0 -1 0
vn 0 -1 0
vn 0 -1 0
vn 0 -1 0
vn 0 -1 0
vn 0 -1 0
vn 0 -1 0
vn 0 -1 0
vn 0 -1 0
vn 0 -1 0
vn 0 -1 0
vn 0 -1 0
vn 0 -1 0
vn 0 -1 0
vn 0 -1 0
vn 0 -1 0
vn 0 -1 0
vn 0 -1 0
vn 0 -1 0
vn 0 -1 0
vn 0 -1 0
vn 0 -1 0
vn 0 -1 0
vn 0 -1 0
vn 0 -1 0
vn 0 -1 0
vn 0 -1 0
vn 0 -1 0
vn 0 -1 0
vn 0 -1 0
vn 0 -1 0
vn 0 -1 0
vn 0 -1 0
vn 0 -1 0
vn 0 -1 0
vn 0 -1 0
vn 0 -1 0
vn 0 -1 0
vn 0 -1 0
vn 0 -1 0
vn 0 -1 0
vn 0 -1 0
vn 0 -1 0
vn 0 -1 0
vn 0 -1 0
vn 0 -1 0
f 6/6/6 4/4/4 30/30/30 34/34/34 38/38/38 2/2/2 28/28/28 1/1/1 45/45/45 31/31/31 3/3/3 5/5/5 12/12/12 23/23/23 7/7/7 9/9/9 8/8/8 25/25/25 14/14/14 10/10/10
f 52/52/52 50/50/50 57/57/57 61/61/61 65/65/65 48/48/48 55/55/55 47/47/47 72/72/72 58/58/58 49/49/49 51/51/51 77/77/77 88/88/88 53/53/53 74/74/74 54/54/54 90/90/90 79/79/79 75/75/75
f 98/98/98 96/96/96 122/122/122 126/126/126 130/130/130 94/94/94 120/120/120 93/93/93 137/137/137 123/123/123 95/95/95 97/97/97 104/104/104 115/115/115 99/99/99 101/101/101 100/100/100 117/117/117 106/106/106 102/102/102
f 144/144/144 142/142/142 149/149/149 153/153/153 157/157/157 140/140/140 147/147/147 139/139/139 164/164/164 150/150/150 141/141/141 143/143/143 169/169/169 180/180/180 145/145/145 166/166/166 146/146/146 182/182/182 171/171/171 167/167/167
usemtl diffuse_0
v 23 -22.613193511962891 2.9874536991119385
v 23 23.386806488037109 2.9874536991119385
v -23 -22.613193511962891 2.9874536991119385
v -23 23.386806488037109 2.9874536991119385
vt 0 0
vt 0 1
vt 1 0
vt 1 1
vn 0 0 -1
vn 0 0 -1
vn 0 0 -1
vn 0 0 -1
f 188/188/188 186/186/186 185/185/185 187/187/187
