# Rhino

mtllib asasasasas.mtl
usemtl diffuse_0
v 10.819103240966797 -11.764861106872559 10.440762519836426
v 10.030047416687012 -11.764861106872559 11.434588432312012
v 9.1413745880126953 -11.764861106872559 12.357986450195313
v 8.1396799087524414 -11.764861106872559 13.21468448638916
v 7.1019954681396484 -11.764861106872559 13.941573143005371
v 6.000218391418457 -11.764861106872559 14.567272186279297
v 4.8441910743713379 -11.764861106872559 15.086160659790039
v 3.5890476703643799 -11.764861106872559 15.509320259094238
v 2.3219192028045654 -11.764861106872559 15.802266120910645
v 1.0615891218185425 -11.764861106872559 15.968591690063477
v -0.174973264336586 -11.764861106872559 16.015087127685547
v -1.4290770292282104 -11.764861106872559 15.945443153381348
v -2.640026330947876 -11.764861106872559 15.76484489440918
v -3.7857823371887207 -11.764861106872559 15.487205505371094
v -4.9927716255187988 -11.764861106872559 15.074671745300293
v -6.1437125205993652 -11.764861106872559 14.555057525634766
v -7.2162117958068848 -11.764861106872559 13.944886207580566
v -8.2448034286499023 -11.764861106872559 13.225757598876953
v -9.2133588790893555 -11.764861106872559 12.402596473693848
v -10.106574058532715 -11.764861106872559 11.483456611633301
v -10.910717010498047 -11.764861106872559 10.479320526123047
v 12.208661079406738 -4.2676692008972168 9.8071660995483398
v 11.484513282775879 -4.2676692008972168 10.91986083984375
v 10.64720630645752 -4.2676692008972168 11.974580764770508
v 9.7041788101196289 -4.2676692008972168 12.954566955566406
v 8.6412067413330078 -4.2676692008972168 13.863777160644531
v 7.5400328636169434 -4.2676692008972168 14.635231018066406
v 6.3708367347717285 -4.2676692008972168 15.299304008483887
v 5.1440615653991699 -4.2676692008972168 15.850030899047852
v 3.8120970726013184 -4.2676692008972168 16.299173355102539
v 2.4674057960510254 -4.2676692008972168 16.610130310058594
v 1.1299214363098145 -4.2676692008972168 16.786714553833008
v -0.18234707415103912 -4.2676692008972168 16.836130142211914
v -1.5132379531860352 -4.2676692008972168 16.762296676635742
v -2.7983386516571045 -4.2676692008972168 16.570713043212891
v -4.0142602920532227 -4.2676692008972168 16.276144027709961
v -5.2951722145080566 -4.2676692008972168 15.838423728942871
v -6.5166110992431641 -4.2676692008972168 15.287063598632813
v -7.6548104286193848 -4.2676692008972168 14.639598846435547
v -8.7464208602905273 -4.2676692008972168 13.876502990722656
v -9.7743253707885742 -4.2676692008972168 13.003000259399414
v -10.722282409667969 -4.2676692008972168 12.027639389038086
v -11.575719833374023 -4.2676692008972168 10.962072372436523
v -12.322457313537598 -4.2676692008972168 9.8206157684326172
v 12.915790557861328 3.2295222282409668 10.222030639648438
v 12.149923324584961 3.2295222282409668 11.398959159851074
v 11.264365196228027 3.2295222282409668 12.514573097229004
v 10.266983985900879 3.2295222282409668 13.5511474609375
v 9.1427335739135742 3.2295222282409668 14.512868881225586
v 7.9780702590942383 3.2295222282409668 15.328887939453125
v 6.7414546012878418 3.2295222282409668 16.031335830688477
v 5.4439325332641602 3.2295222282409668 16.613901138305664
v 4.0351467132568359 3.2295222282409668 17.089025497436523
v 2.6128923892974854 3.2295222282409668 17.417993545532227
v 1.1982537508010864 3.2295222282409668 17.604835510253906
v -0.18972089886665344 3.2295222282409668 17.657173156738281
v -1.5973987579345703 3.2295222282409668 17.57914924621582
v -2.956650972366333 3.2295222282409668 17.376581192016602
v -4.2427387237548828 3.2295222282409668 17.065080642700195
v -5.5975732803344727 3.2295222282409668 16.602174758911133
v -6.8895096778869629 3.2295222282409668 16.019071578979492
v -8.093409538269043 3.2295222282409668 15.334311485290527
v -9.2480382919311523 3.2295222282409668 14.527247428894043
v -10.335292816162109 3.2295222282409668 13.603404998779297
v -11.337990760803223 3.2295222282409668 12.571822166442871
v -12.240721702575684 3.2295222282409668 11.444825172424316
v -13.030601501464844 3.2295222282409668 10.237553596496582
v 14.316328048706055 10.726714134216309 9.3149776458740234
v 13.622920989990234 10.726714134216309 10.636896133422852
v 12.815333366394043 10.726714134216309 11.878057479858398
v 11.881524085998535 10.726714134216309 13.0545654296875
v 10.829788208007813 10.726714134216309 14.147727966308594
v 9.6442604064941406 10.726714134216309 15.161960601806641
v 8.416107177734375 10.726714134216309 16.022546768188477
v 7.1120724678039551 10.726714134216309 16.76336669921875
v 5.7438030242919922 10.726714134216309 17.377769470214844
v 4.2581958770751953 10.726714134216309 17.878877639770508
v 2.7583789825439453 10.726714134216309 18.225856781005859
v 1.2665860652923584 10.726714134216309 18.422958374023438
v -0.19709470868110657 10.726714134216309 18.478214263916016
v -1.6815595626831055 10.726714134216309 18.396001815795898
v -3.1149632930755615 10.726714134216309 18.18244743347168
v -4.4712166786193848 10.726714134216309 17.85401725769043
v -5.8999743461608887 10.726714134216309 17.365926742553711
v -7.2624082565307617 10.726714134216309 16.751077651977539
v -8.532008171081543 10.726714134216309 16.029024124145508
v -9.7496557235717773 10.726714134216309 15.177992820739746
v -10.896259307861328 10.726714134216309 14.203808784484863
v -11.953700065612793 10.726714134216309 13.116004943847656
v -12.90572452545166 10.726714134216309 11.927577018737793
v -13.73874568939209 10.726714134216309 10.654491424560547
v -14.44248104095459 10.726714134216309 9.3149776458740234
v -14.101711273193359 7.9144949913024902 9.3149776458740234
v -13.759455680847168 5.1024503707885742 9.3149776458740234
v -13.415556907653809 2.2906038761138916 9.3149776458740234
v -13.069859504699707 -0.52102202177047729 9.3149776458740234
v -12.722208976745605 -3.3324043750762939 9.3149776458740234
v -12.37244987487793 -6.1435203552246094 9.3149776458740234
v -12.020425796508789 -8.9543466567993164 9.3149776458740234
v -11.665982246398926 -11.764861106872559 9.3149776458740234
v 11.546523094177246 -11.764861106872559 9.3149776458740234
v 11.900131225585938 -8.9543333053588867 9.3149776458740234
v 12.251319885253906 -6.143496036529541 9.3149776458740234
v 12.60024356842041 -3.3323719501495361 9.3149776458740234
v 12.94705867767334 -0.52098530530929565 9.3149776458740234
v 13.291918754577637 2.2906403541564941 9.3149776458740234
v 13.634980201721191 5.1024813652038574 9.3149776458740234
v 13.976397514343262 7.9145135879516602 9.3149776458740234
vt 0 0.082487761974334717
vt 0 0.12317796051502228
vt 0 0.16386815905570984
vt 0 0.20549467206001282
vt 0 0.24547789990901947
vt 0 0.28561922907829285
vt 0 0.32610058784484863
vt 0 0.36898255348205566
vt 0 0.4118645191192627
vt 0 0.45474648475646973
vt 0 0.49762845039367676
vt 0 0.5425536036491394
vt 0 0.58736991882324219
vt 0 0.62933111190795898
vt 0 0.67337310314178467
vt 0 0.71582657098770142
vt 0 0.75642275810241699
vt 0 0.79701900482177734
vt 0 0.83761519193649292
vt 0 0.8782113790512085
vt 0 0.91880756616592407
vt 0.3333333432674408 0.041797555983066559
vt 0.3333333432674408 0.082487761974334717
vt 0.3333333432674408 0.12317796051502228
vt 0.3333333432674408 0.16386815905570984
vt 0.3333333432674408 0.20549467206001282
vt 0.3333333432674408 0.24547789990901947
vt 0.3333333432674408 0.28561922907829285
vt 0.3333333432674408 0.32610058784484863
vt 0.3333333432674408 0.36898255348205566
vt 0.3333333432674408 0.4118645191192627
vt 0.3333333432674408 0.45474648475646973
vt 0.3333333432674408 0.49762845039367676
vt 0.3333333432674408 0.5425536036491394
vt 0.3333333432674408 0.58736991882324219
vt 0.3333333432674408 0.62933111190795898
vt 0.3333333432674408 0.67337310314178467
vt 0.3333333432674408 0.71582657098770142
vt 0.3333333432674408 0.75642275810241699
vt 0.3333333432674408 0.79701900482177734
vt 0.3333333432674408 0.83761519193649292
vt 0.3333333432674408 0.8782113790512085
vt 0.3333333432674408 0.91880756616592407
vt 0.3333333432674408 0.95940381288528442
vt 0.66666668653488159 0.041797555983066559
vt 0.66666668653488159 0.082487761974334717
vt 0.66666668653488159 0.12317796051502228
vt 0.66666668653488159 0.16386815905570984
vt 0.66666668653488159 0.20549467206001282
vt 0.66666668653488159 0.24547789990901947
vt 0.66666668653488159 0.28561922907829285
vt 0.66666668653488159 0.32610058784484863
vt 0.66666668653488159 0.36898255348205566
vt 0.66666668653488159 0.4118645191192627
vt 0.66666668653488159 0.45474648475646973
vt 0.66666668653488159 0.49762845039367676
vt 0.66666668653488159 0.5425536036491394
vt 0.66666668653488159 0.58736991882324219
vt 0.66666668653488159 0.62933111190795898
vt 0.66666668653488159 0.67337310314178467
vt 0.66666668653488159 0.71582657098770142
vt 0.66666668653488159 0.75642275810241699
vt 0.66666668653488159 0.79701900482177734
vt 0.66666668653488159 0.83761519193649292
vt 0.66666668653488159 0.8782113790512085
vt 0.66666668653488159 0.91880756616592407
vt 0.66666668653488159 0.95940381288528442
vt 1 0
vt 1 0.041797555983066559
vt 1 0.082487761974334717
vt 1 0.12317796051502228
vt 1 0.16386815905570984
vt 1 0.20549467206001282
vt 1 0.24547789990901947
vt 1 0.28561922907829285
vt 1 0.32610058784484863
vt 1 0.36898255348205566
vt 1 0.4118645191192627
vt 1 0.45474648475646973
vt 1 0.49762845039367676
vt 1 0.5425536036491394
vt 1 0.58736991882324219
vt 1 0.62933111190795898
vt 1 0.67337310314178467
vt 1 0.71582657098770142
vt 1 0.75642275810241699
vt 1 0.79701900482177734
vt 1 0.83761519193649292
vt 1 0.8782113790512085
vt 1 0.91880756616592407
vt 1 0.95940381288528442
vt 1 1
vt 0.8749658465385437 0.99604159593582153
vt 0.7499396800994873 0.99190902709960938
vt 0.62492227554321289 0.98758959770202637
vt 0.49991452693939209 0.98306953907012939
vt 0.37491732835769653 0.97833371162414551
vt 0.24993172287940979 0.97336512804031372
vt 0.12495881319046021 0.96814501285552979
vt 0 0.96265190839767456
vt 0 0.038861770182847977
vt 0.12495940923690796 0.033176075667142868
vt 0.24993281066417694 0.027763351798057556
vt 0.37491881847381592 0.022602850571274757
vt 0.4999161958694458 0.017676141113042831
vt 0.6249239444732666 0.012966727837920189
vt 0.74994105100631714 0.0084597328677773476
vt 0.87496668100357056 0.0041416245512664318
vn 0.80691981315612793 -0.10871835798025131 0.58056932687759399
vn 0.74839168787002563 -0.10873204469680786 0.65428370237350464
vn 0.68247485160827637 -0.10874646902084351 0.72277402877807617
vn 0.60817503929138184 -0.10876177251338959 0.78631675243377686
vn 0.53120595216751099 -0.10877681523561478 0.84023082256317139
vn 0.44948318600654602 -0.1087920293211937 0.88663923740386963
vn 0.36373680830001831 -0.10880729556083679 0.9251251220703125
vn 0.27063903212547302 -0.10882315039634705 0.95651036500930786
vn 0.17665262520313263 -0.10883846879005432 0.97823721170425415
vn 0.083170771598815918 -0.1088530644774437 0.99057239294052124
vn -0.0085478620603680611 -0.10886678844690323 0.99401956796646118
vn -0.10156731307506561 -0.10888011008501053 0.98885244131088257
vn -0.1913856565952301 -0.10889239609241486 0.97545576095581055
vn -0.27636829018592834 -0.10890346765518188 0.95486158132553101
vn -0.36589246988296509 -0.10891452431678772 0.92426204681396484
vn -0.4512593150138855 -0.10892441123723984 0.88572031259536743
vn -0.53080791234970093 -0.1089329868555069 0.84046214818954468
vn -0.60709971189498901 -0.10894052684307098 0.78712254762649536
vn -0.67893850803375244 -0.10894687473773956 0.72606682777404785
vn -0.74518918991088867 -0.10895191133022308 0.65789252519607544
vn -0.80483341217041016 -0.10895554721355438 0.58341401815414429
vn 0.85756725072860718 -0.1087055429816246 0.50275391340255737
vn 0.80695235729217529 -0.10871835052967072 0.5805240273475647
vn 0.74842840433120728 -0.10873204469680786 0.65424174070358276
vn 0.68251538276672363 -0.10874646157026291 0.72273576259613037
vn 0.60821914672851563 -0.10876177251338959 0.78628259897232056
vn 0.53125303983688354 -0.10877680778503418 0.84020102024078369
vn 0.44953292608261108 -0.1087920293211937 0.88661402463912964
vn 0.36378869414329529 -0.10880729556083679 0.92510473728179932
vn 0.27069267630577087 -0.10882315039634705 0.95649516582489014
vn 0.17670749127864838 -0.10883846879005432 0.97822731733322144
vn 0.083226330578327179 -0.1088530644774437 0.99056768417358398
vn -0.0084921149536967278 -0.10886678844690323 0.99402004480361938
vn -0.10151185095310211 -0.10888011008501053 0.98885816335678101
vn -0.19133093953132629 -0.10889239609241486 0.97546648979187012
vn -0.27631473541259766 -0.10890346765518188 0.95487707853317261
vn -0.36584064364433289 -0.10891452431678772 0.92428255081176758
vn -0.45120963454246521 -0.10892441123723984 0.88574564456939697
vn -0.53076076507568359 -0.1089329868555069 0.8404918909072876
vn -0.60705554485321045 -0.10894052684307098 0.78715658187866211
vn -0.67889779806137085 -0.10894688218832016 0.72610491514205933
vn -0.74515229463577271 -0.10895191878080368 0.65793430805206299
vn -0.80480068922042847 -0.10895554721355438 0.58345913887023926
vn -0.85699158906936646 -0.10895771533250809 0.50368005037307739
vn 0.85759234428405762 -0.1087055429816246 0.50271111726760864
vn 0.80698138475418091 -0.10871835052967072 0.58048373460769653
vn 0.74846112728118896 -0.10873203724622726 0.65420436859130859
vn 0.68255150318145752 -0.10874646157026291 0.72270160913467407
vn 0.60825842618942261 -0.10876177251338959 0.78625220060348511
vn 0.5312950611114502 -0.10877680778503418 0.84017449617385864
vn 0.4495772123336792 -0.1087920218706131 0.88659155368804932
vn 0.3638349175453186 -0.1088072881102562 0.92508655786514282
vn 0.27074044942855835 -0.10882314294576645 0.95648163557052612
vn 0.1767563670873642 -0.10883846133947372 0.97821849584579468
vn 0.083275824785232544 -0.1088530644774437 0.99056357145309448
vn -0.0084424484521150589 -0.10886678844690323 0.99402052164077759
vn -0.10146244615316391 -0.10888011008501053 0.98886322975158691
vn -0.19128221273422241 -0.10889238864183426 0.97547608613967896
vn -0.27626702189445496 -0.10890346765518188 0.95489084720611572
vn -0.36579445004463196 -0.10891451686620712 0.92430084943771362
vn -0.45116537809371948 -0.10892441123723984 0.88576817512512207
vn -0.53071874380111694 -0.1089329868555069 0.84051841497421265
vn -0.60701626539230347 -0.10894052684307098 0.78718692064285278
vn -0.67886149883270264 -0.10894688218832016 0.72613883018493652
vn -0.74511939287185669 -0.10895192623138428 0.65797150135040283
vn -0.80477148294448853 -0.10895555466413498 0.58349937200546265
vn -0.85696643590927124 -0.10895772278308868 0.50372284650802612
vn 0.90106749534606934 -0.1086934357881546 0.41983693838119507
vn 0.85761487483978271 -0.1087055429816246 0.50267267227172852
vn 0.80700737237930298 -0.10871835052967072 0.58044755458831787
vn 0.74849039316177368 -0.10873203724622726 0.65417081117630005
vn 0.68258386850357056 -0.10874645411968231 0.7226710319519043
vn 0.60829365253448486 -0.10876176506280899 0.78622496128082275
vn 0.53133267164230347 -0.10877680033445358 0.84015071392059326
vn 0.449616938829422 -0.1087920218706131 0.88657140731811523
vn 0.3638763427734375 -0.1088072881102562 0.92507028579711914
vn 0.27078330516815186 -0.10882314294576645 0.95646953582763672
vn 0.17680017650127411 -0.10883846133947372 0.97821056842803955
vn 0.083320192992687225 -0.1088530570268631 0.99055981636047363
vn -0.0083979209885001183 -0.10886678099632263 0.99402087926864624
vn -0.1014181450009346 -0.10888010263442993 0.98886775970458984
vn -0.19123850762844086 -0.10889238864183426 0.97548460960388184
vn -0.27622422575950623 -0.10890346765518188 0.954903244972229
vn -0.36575305461883545 -0.10891451686620712 0.92431724071502686
vn -0.45112571120262146 -0.10892441123723984 0.88578838109970093
vn -0.53068113327026367 -0.1089329868555069 0.84054219722747803
vn -0.60698097944259644 -0.10894052684307098 0.78721410036087036
vn -0.67882901430130005 -0.10894688218832016 0.72616922855377197
vn -0.74508994817733765 -0.10895191878080368 0.65800487995147705
vn -0.8047453761100769 -0.10895555466413498 0.58353543281555176
vn -0.85694390535354614 -0.10895772278308868 0.50376123189926147
vn -0.90104120969772339 -0.1089584156870842 0.41982468962669373
vn -0.8971182107925415 -0.1089584156870842 0.42814368009567261
vn -0.89293652772903442 -0.10895839333534241 0.43679797649383545
vn -0.88847225904464722 -0.10895835608243942 0.44580844044685364
vn -0.88369870185852051 -0.10895830392837524 0.45519739389419556
vn -0.8785860538482666 -0.10895822197198868 0.46498888731002808
vn -0.87310051918029785 -0.10895811766386032 0.47520905733108521
vn -0.86720383167266846 -0.10895799100399017 0.48588651418685913
vn -0.86085224151611328 -0.10895781964063644 0.49705290794372559
vn 0.86087626218795776 -0.10870465636253357 0.49706676602363586
vn 0.86722820997238159 -0.10870295763015747 0.48590010404586792
vn 0.87312525510787964 -0.10870135575532913 0.47522234916687012
vn 0.87861114740371704 -0.10869984328746796 0.46500194072723389
vn 0.88372409343719482 -0.10869842022657394 0.45521026849746704
vn 0.88849782943725586 -0.1086970716714859 0.44582119584083557
vn 0.89296233654022217 -0.10869579762220383 0.43681055307388306
vn 0.89714425802230835 -0.10869458317756653 0.42815610766410828
f 24/24/24 2/2/2 1/1/1 23/23/23 46/46/46 70/70/70 71/71/71 47/47/47
f 25/25/25 3/3/3 2/2/2 24/24/24 47/47/47 71/71/71 72/72/72 48/48/48
f 26/26/26 4/4/4 3/3/3 25/25/25 48/48/48 72/72/72 73/73/73 49/49/49
f 27/27/27 5/5/5 4/4/4 26/26/26 49/49/49 73/73/73 74/74/74 50/50/50
f 28/28/28 6/6/6 5/5/5 27/27/27 50/50/50 74/74/74 75/75/75 51/51/51
f 29/29/29 7/7/7 6/6/6 28/28/28 51/51/51 75/75/75 76/76/76 52/52/52
f 30/30/30 8/8/8 7/7/7 29/29/29 52/52/52 76/76/76 77/77/77 53/53/53
f 31/31/31 9/9/9 8/8/8 30/30/30 53/53/53 77/77/77 78/78/78 54/54/54
f 32/32/32 10/10/10 9/9/9 31/31/31 54/54/54 78/78/78 79/79/79 55/55/55
f 33/33/33 11/11/11 10/10/10 32/32/32 55/55/55 79/79/79 80/80/80 56/56/56
f 34/34/34 12/12/12 11/11/11 33/33/33 56/56/56 80/80/80 81/81/81 57/57/57
f 35/35/35 13/13/13 12/12/12 34/34/34 57/57/57 81/81/81 82/82/82 58/58/58
f 36/36/36 14/14/14 13/13/13 35/35/35 58/58/58 82/82/82 83/83/83 59/59/59
f 37/37/37 15/15/15 14/14/14 36/36/36 59/59/59 83/83/83 84/84/84 60/60/60
f 38/38/38 16/16/16 15/15/15 37/37/37 60/60/60 84/84/84 85/85/85 61/61/61
f 39/39/39 17/17/17 16/16/16 38/38/38 61/61/61 85/85/85 86/86/86 62/62/62
f 40/40/40 18/18/18 17/17/17 39/39/39 62/62/62 86/86/86 87/87/87 63/63/63
f 41/41/41 19/19/19 18/18/18 40/40/40 63/63/63 87/87/87 88/88/88 64/64/64
f 42/42/42 20/20/20 19/19/19 41/41/41 64/64/64 88/88/88 89/89/89 65/65/65
f 46/46/46 23/23/23 1/1/1 22/22/22 45/45/45 69/69/69 70/70/70
f 66/66/66 43/43/43 21/21/21 20/20/20 42/42/42 65/65/65 89/89/89 90/90/90
f 67/67/67 44/44/44 21/21/21 43/43/43 66/66/66 90/90/90 91/91/91
f 102/102/102 1/1/1 101/101/101
f 22/22/22 102/102/102 103/103/103
f 22/22/22 103/103/103 104/104/104
f 102/102/102 22/22/22 1/1/1
f 99/99/99 100/100/100 21/21/21
f 99/99/99 44/44/44 98/98/98
f 44/44/44 99/99/99 21/21/21
f 98/98/98 44/44/44 97/97/97
f 44/44/44 96/96/96 97/97/97
f 45/45/45 22/22/22 105/105/105
f 106/106/106 45/45/45 105/105/105
f 108/108/108 69/69/69 107/107/107
f 107/107/107 69/69/69 45/45/45
f 106/106/106 107/107/107 45/45/45
f 69/69/69 108/108/108 68/68/68
f 95/95/95 96/96/96 67/67/67
f 96/96/96 44/44/44 67/67/67
f 67/67/67 94/94/94 95/95/95
f 94/94/94 67/67/67 91/91/91
f 94/94/94 91/91/91 93/93/93
f 91/91/91 92/92/92 93/93/93
f 22/22/22 104/104/104 105/105/105
