# Rhino

mtllib cup-straight-img.mtl
usemtl diffuse_0
v -11.94068717956543 -12.746378898620605 9.3884401321411133
v -11.94068717956543 11.703178405761719 9.3884401321411133
v -10.985348701477051 -12.746378898620605 10.87291145324707
v -10.985348701477051 -4.5965266227722168 10.87291145324707
v -10.985348701477051 3.553325891494751 10.87291145324707
v -10.985348701477051 11.703178405761719 10.87291145324707
v -9.8420162200927734 -12.746378898620605 12.225112915039063
v -9.8420162200927734 -4.5965266227722168 12.225112915039063
v -9.8420162200927734 3.553325891494751 12.225112915039063
v -9.8420162200927734 11.703178405761719 12.225112915039063
v -8.4987812042236328 -12.746378898620605 13.444334030151367
v -8.4987812042236328 -4.5965266227722168 13.444334030151367
v -8.4987812042236328 3.553325891494751 13.444334030151367
v -8.4987812042236328 11.703178405761719 13.444334030151367
v -7.0436773300170898 -12.746378898620605 14.451034545898438
v -7.0436773300170898 -4.5965266227722168 14.451034545898438
v -7.0436773300170898 3.553325891494751 14.451034545898438
v -7.0436773300170898 11.703178405761719 14.451034545898438
v -5.4008855819702148 -12.746378898620605 15.290251731872559
v -5.4008855819702148 -4.5965266227722168 15.290251731872559
v -5.4008855819702148 3.553325891494751 15.290251731872559
v -5.4008855819702148 11.703178405761719 15.290251731872559
v -3.7076706886291504 -12.746378898620605 15.886165618896484
v -3.7076706886291504 -4.5965266227722168 15.886165618896484
v -3.7076706886291504 3.553325891494751 15.886165618896484
v -3.7076706886291504 11.703178405761719 15.886165618896484
v -2.0128557682037354 -12.746378898620605 16.245025634765625
v -2.0128557682037354 -4.5965266227722168 16.245025634765625
v -2.0128557682037354 3.553325891494751 16.245025634765625
v -2.0128557682037354 11.703178405761719 16.245025634765625
v -0.35895243287086487 -12.746378898620605 16.384105682373047
v -0.35895243287086487 11.703178405761719 16.384105682373047
v -0.35895243287086487 -6.6339898109436035 16.384105682373047
v -0.35895243287086487 -0.52160030603408813 16.384105682373047
v -0.35895243287086487 5.5907888412475586 16.384105682373047
v -11.94068717956543 5.5907888412475586 9.3884401321411133
v -11.94068717956543 -0.52160030603408813 9.3884401321411133
v -11.94068717956543 -6.6339898109436035 9.3884401321411133
v -0.35895243287086487 -12.746378898620605 16.384105682373047
v -0.35895243287086487 11.703178405761719 16.384105682373047
v 1.4559290409088135 -12.746378898620605 16.304250717163086
v 1.4559290409088135 -4.5965266227722168 16.304250717163086
v 1.4559290409088135 3.553325891494751 16.304250717163086
v 1.4559290409088135 11.703178405761719 16.304250717163086
v 3.2831060886383057 -12.746378898620605 15.973458290100098
v 3.2831060886383057 -4.5965266227722168 15.973458290100098
v 3.2831060886383057 3.553325891494751 15.973458290100098
v 3.2831060886383057 11.703178405761719 15.973458290100098
v 5.0212202072143555 -12.746378898620605 15.407784461975098
v 5.0212202072143555 -4.5965266227722168 15.407784461975098
v 5.0212202072143555 3.553325891494751 15.407784461975098
v 5.0212202072143555 11.703178405761719 15.407784461975098
v 6.6667861938476563 -12.746378898620605 14.614772796630859
v 6.6667861938476563 -4.5965266227722168 14.614772796630859
v 6.6667861938476563 3.553325891494751 14.614772796630859
v 6.6667861938476563 11.703178405761719 14.614772796630859
v 8.2158098220825195 -12.746378898620605 13.589709281921387
v 8.2158098220825195 -4.5965266227722168 13.589709281921387
v 8.2158098220825195 3.553325891494751 13.589709281921387
v 8.2158098220825195 11.703178405761719 13.589709281921387
v 9.6206169128417969 -12.746378898620605 12.353217124938965
v 9.6206169128417969 -4.5965266227722168 12.353217124938965
v 9.6206169128417969 3.553325891494751 12.353217124938965
v 9.6206169128417969 11.703178405761719 12.353217124938965
v 10.840258598327637 -12.746378898620605 10.938501358032227
v 10.840258598327637 -4.5965266227722168 10.938501358032227
v 10.840258598327637 3.553325891494751 10.938501358032227
v 10.840258598327637 11.703178405761719 10.938501358032227
v 11.844407081604004 -12.746378898620605 9.3884401321411133
v -0.35895243287086487 5.5907888412475586 16.384105682373047
v -0.35895243287086487 -0.52160030603408813 16.384105682373047
v -0.35895243287086487 -6.6339898109436035 16.384105682373047
v 11.844407081604004 -6.6339898109436035 9.3884401321411133
v 11.844407081604004 -0.52160030603408813 9.3884401321411133
v 11.844407081604004 5.5907888412475586 9.3884401321411133
v 11.844407081604004 11.703178405761719 9.3884401321411133
vt 0 0
vt 0 0.84435361623764038
vt 0.058917481452226639 0
vt 0.058917481452226639 0.28145119547843933
vt 0.058917481452226639 0.56290239095687866
vt 0.058917481452226639 0.84435361623764038
vt 0.11753540486097336 0
vt 0.11753540486097336 0.28145119547843933
vt 0.11753540486097336 0.56290239095687866
vt 0.11753540486097336 0.84435361623764038
vt 0.17760981619358063 0
vt 0.17760981619358063 0.28145119547843933
vt 0.17760981619358063 0.56290239095687866
vt 0.17760981619358063 0.84435361623764038
vt 0.23673585057258606 0
vt 0.23673585057258606 0.28145119547843933
vt 0.23673585057258606 0.56290239095687866
vt 0.23673585057258606 0.84435361623764038
vt 0.29950797557830811 0
vt 0.29950797557830811 0.28145119547843933
vt 0.29950797557830811 0.56290239095687866
vt 0.29950797557830811 0.84435361623764038
vt 0.36228004097938538 0
vt 0.36228004097938538 0.28145119547843933
vt 0.36228004097938538 0.56290239095687866
vt 0.36228004097938538 0.84435361623764038
vt 0.42505216598510742 0
vt 0.42505216598510742 0.28145119547843933
vt 0.42505216598510742 0.56290239095687866
vt 0.42505216598510742 0.84435361623764038
vt 0.48782426118850708 0
vt 0.48782426118850708 0.84435361623764038
vt 0.48782426118850708 0.2110884040594101
vt 0.48782426118850708 0.42217680811882019
vt 0.48782426118850708 0.63326519727706909
vt 0 0.63326519727706909
vt 0 0.42217680811882019
vt 0 0.2110884040594101
vt 0.48928910493850708 0
vt 0.48928910493850708 0.84435361623764038
vt 0.55792427062988281 0
vt 0.55792427062988281 0.28145119547843933
vt 0.55792427062988281 0.56290239095687866
vt 0.55792427062988281 0.84435361623764038
vt 0.62495070695877075 0
vt 0.62495070695877075 0.28145119547843933
vt 0.62495070695877075 0.56290239095687866
vt 0.62495070695877075 0.84435361623764038
vt 0.6886063814163208 0
vt 0.6886063814163208 0.28145119547843933
vt 0.6886063814163208 0.56290239095687866
vt 0.6886063814163208 0.84435361623764038
vt 0.75059211254119873 0
vt 0.75059211254119873 0.28145119547843933
vt 0.75059211254119873 0.56290239095687866
vt 0.75059211254119873 0.84435361623764038
vt 0.81257784366607666 0
vt 0.81257784366607666 0.28145119547843933
vt 0.81257784366607666 0.56290239095687866
vt 0.81257784366607666 0.84435361623764038
vt 0.87456363439559937 0
vt 0.87456363439559937 0.28145119547843933
vt 0.87456363439559937 0.56290239095687866
vt 0.87456363439559937 0.84435361623764038
vt 0.93654936552047729 0
vt 0.93654936552047729 0.28145119547843933
vt 0.93654936552047729 0.56290239095687866
vt 0.93654936552047729 0.84435361623764038
vt 0.99853515625 0
vt 0.48928910493850708 0.63326519727706909
vt 0.48928910493850708 0.42217680811882019
vt 0.48928910493850708 0.2110884040594101
vt 0.99853515625 0.2110884040594101
vt 0.99853515625 0.42217680811882019
vt 0.99853515625 0.63326519727706909
vt 0.99853515625 0.84435361623764038
vn -0.87425452470779419 0 0.4854678213596344
vn -0.87425452470779419 0 0.4854678213596344
vn -0.80402499437332153 0 0.59459555149078369
vn -0.80402499437332153 0 0.59459555149078369
vn -0.80402499437332153 0 0.59459555149078369
vn -0.80402499437332153 0 0.59459555149078369
vn -0.71997535228729248 0 0.69399964809417725
vn -0.71997535228729248 0 0.69399964809417725
vn -0.71997535228729248 0 0.69399964809417725
vn -0.71997535228729248 0 0.69399964809417725
vn -0.6212303638458252 0 0.78362798690795898
vn -0.6212303638458252 0 0.78362798690795898
vn -0.6212303638458252 0 0.78362798690795898
vn -0.6212303638458252 0 0.78362798690795898
vn -0.51426160335540771 0 0.85763335227966309
vn -0.51426160335540771 0 0.85763335227966309
vn -0.51426160335540771 0 0.85763335227966309
vn -0.51426160335540771 0 0.85763335227966309
vn -0.39349538087844849 0 0.91932660341262817
vn -0.39349538087844849 0 0.91932660341262817
vn -0.39349538087844849 0 0.91932660341262817
vn -0.39349538087844849 0 0.91932660341262817
vn -0.2690223753452301 0 0.96313393115997314
vn -0.2690223753452301 0 0.96313393115997314
vn -0.2690223753452301 0 0.96313393115997314
vn -0.2690223753452301 0 0.96313393115997314
vn -0.14443178474903107 0 0.98951476812362671
vn -0.14443178474903107 0 0.98951476812362671
vn -0.14443178474903107 0 0.98951476812362671
vn -0.14443178474903107 0 0.98951476812362671
vn -0.022848691791296005 0 0.99973893165588379
vn -0.022848691791296005 0 0.99973893165588379
vn -0.022848691791296005 0 0.99973893165588379
vn -0.022848691791296005 0 0.99973893165588379
vn -0.022848691791296005 0 0.99973893165588379
vn -0.87425452470779419 0 0.4854678213596344
vn -0.87425452470779419 0 0.4854678213596344
vn -0.87425452470779419 0 0.4854678213596344
vn -0.022848691791296005 0 0.99973893165588379
vn -0.022848691791296005 0 0.99973893165588379
vn 0.1105683445930481 0 0.99386852979660034
vn 0.1105683445930481 0 0.99386852979660034
vn 0.1105683445930481 0 0.99386852979660034
vn 0.1105683445930481 0 0.99386852979660034
vn 0.2448892742395401 0 0.96955102682113647
vn 0.2448892742395401 0 0.96955102682113647
vn 0.2448892742395401 0 0.96955102682113647
vn 0.2448892742395401 0 0.96955102682113647
vn 0.37266290187835693 0 0.92796677350997925
vn 0.37266290187835693 0 0.92796677350997925
vn 0.37266290187835693 0 0.92796677350997925
vn 0.37266290187835693 0 0.92796677350997925
vn 0.49363309144973755 0 0.86967027187347412
vn 0.49363309144973755 0 0.86967027187347412
vn 0.49363309144973755 0 0.86967027187347412
vn 0.49363309144973755 0 0.86967027187347412
vn 0.60750621557235718 0 0.7943149209022522
vn 0.60750621557235718 0 0.7943149209022522
vn 0.60750621557235718 0 0.7943149209022522
vn 0.60750621557235718 0 0.7943149209022522
vn 0.71077746152877808 0 0.70341694355010986
vn 0.71077746152877808 0 0.70341694355010986
vn 0.71077746152877808 0 0.70341694355010986
vn 0.71077746152877808 0 0.70341694355010986
vn 0.80043679475784302 0 0.59941720962524414
vn 0.80043679475784302 0 0.59941720962524414
vn 0.80043679475784302 0 0.59941720962524414
vn 0.80043679475784302 0 0.59941720962524414
vn 0.87425452470779419 0 0.4854678213596344
vn -0.022848691791296005 0 0.99973893165588379
vn -0.022848691791296005 0 0.99973893165588379
vn -0.022848691791296005 0 0.99973893165588379
vn 0.87425452470779419 0 0.4854678213596344
vn 0.87425452470779419 0 0.4854678213596344
vn 0.87425452470779419 0 0.4854678213596344
vn 0.87425452470779419 0 0.4854678213596344
f 4/4/4 3/3/3 7/7/7 8/8/8 9/9/9 10/10/10 6/6/6 5/5/5
f 8/8/8 7/7/7 11/11/11 12/12/12 13/13/13 14/14/14 10/10/10 9/9/9
f 12/12/12 11/11/11 15/15/15 16/16/16 17/17/17 18/18/18 14/14/14 13/13/13
f 16/16/16 15/15/15 19/19/19 20/20/20 21/21/21 22/22/22 18/18/18 17/17/17
f 20/20/20 19/19/19 23/23/23 24/24/24 25/25/25 26/26/26 22/22/22 21/21/21
f 24/24/24 23/23/23 27/27/27 28/28/28 29/29/29 30/30/30 26/26/26 25/25/25
f 38/38/38 1/1/1 3/3/3 4/4/4 5/5/5 6/6/6 2/2/2 36/36/36 37/37/37
f 28/28/28 27/27/27 31/31/31 33/33/33 34/34/34 35/35/35 32/32/32 30/30/30 29/29/29
f 42/42/42 41/41/41 45/45/45 46/46/46 47/47/47 48/48/48 44/44/44 43/43/43
f 46/46/46 45/45/45 49/49/49 50/50/50 51/51/51 52/52/52 48/48/48 47/47/47
f 50/50/50 49/49/49 53/53/53 54/54/54 55/55/55 56/56/56 52/52/52 51/51/51
f 54/54/54 53/53/53 57/57/57 58/58/58 59/59/59 60/60/60 56/56/56 55/55/55
f 58/58/58 57/57/57 61/61/61 62/62/62 63/63/63 64/64/64 60/60/60 59/59/59
f 62/62/62 61/61/61 65/65/65 66/66/66 67/67/67 68/68/68 64/64/64 63/63/63
f 72/72/72 39/39/39 41/41/41 42/42/42 43/43/43 44/44/44 40/40/40 70/70/70 71/71/71
f 66/66/66 65/65/65 69/69/69 73/73/73 74/74/74 75/75/75 76/76/76 68/68/68 67/67/67
